<?xml version="1.0" encoding="UTF-8" standalone="no"?>
<!-- ***** BEGIN LICENSE BLOCK *****
  - Part of the Jellyfin project (https://jellyfin.media)
  - 
  - All copyright belongs to the Jellyfin contributors; a full list can
  - be found in the file CONTRIBUTORS.md
  - 
  - This work is licensed under the Creative Commons Attribution-ShareAlike 4.0 International License.
  - To view a copy of this license, visit http://creativecommons.org/licenses/by-sa/4.0/.
- ***** END LICENSE BLOCK ***** -->

<svg
   version="1.1"
   id="svg2"
   viewBox="0 0 512 512"
   sodipodi:docname="sndstrm.svg"
   inkscape:version="1.4.4 (dcaf3e7d9e, 2026-05-05)"
   xmlns:inkscape="http://www.inkscape.org/namespaces/inkscape"
   xmlns:sodipodi="http://sodipodi.sourceforge.net/DTD/sodipodi-0.dtd"
   xmlns:xlink="http://www.w3.org/1999/xlink"
   xmlns="http://www.w3.org/2000/svg"
   xmlns:svg="http://www.w3.org/2000/svg"
   xmlns:rdf="http://www.w3.org/1999/02/22-rdf-syntax-ns#"
   xmlns:cc="http://creativecommons.org/ns#"
   xmlns:dc="http://purl.org/dc/elements/1.1/">
  <sodipodi:namedview
     id="namedview2"
     pagecolor="#ffffff"
     bordercolor="#000000"
     borderopacity="0.25"
     inkscape:showpageshadow="2"
     inkscape:pageopacity="0.0"
     inkscape:pagecheckerboard="0"
     inkscape:deskcolor="#d1d1d1"
     showgrid="false"
     inkscape:zoom="1.2207031"
     inkscape:cx="234.7008"
     inkscape:cy="258.8672"
     inkscape:window-width="1536"
     inkscape:window-height="795"
     inkscape:window-x="0"
     inkscape:window-y="0"
     inkscape:window-maximized="1"
     inkscape:current-layer="icon-transparent" />
  <defs
     id="defs2">
    <inkscape:path-effect
       effect="roughen"
       id="path-effect27"
       is_visible="true"
       lpeversion="1.2"
       global_randomize="1;1"
       displace_x="2.19197;1"
       displace_y="2.17085;1"
       method="size"
       max_segment_size="6.51254"
       segments="13"
       handles="along"
       shift_nodes="true"
       fixed_displacement="false"
       spray_tool_friendly="false" />
    <inkscape:path-effect
       effect="roughen"
       id="path-effect26"
       is_visible="true"
       lpeversion="1.2"
       global_randomize="1;1"
       displace_x="3.10243;1"
       displace_y="3.10242;1"
       method="size"
       max_segment_size="9.30726"
       segments="2"
       handles="along"
       shift_nodes="true"
       fixed_displacement="false"
       spray_tool_friendly="false" />
    <inkscape:path-effect
       effect="copy_rotate"
       starting_point="0,0"
       origin="178.77268,278.80005"
       id="path-effect25"
       is_visible="true"
       lpeversion="1.2"
       lpesatellites=""
       method="kaleidoskope"
       num_copies="18"
       starting_angle="0"
       rotation_angle="20"
       gap="30.3"
       copies_to_360="true"
       mirror_copies="false"
       split_items="false"
       link_styles="false" />
    <linearGradient
       id="linearGradient4"
       gradientUnits="userSpaceOnUse"
       x1="110.25"
       y1="213.3"
       x2="496.14"
       y2="436.09">
      <stop
         offset="0"
         style="stop-color:#dcb782;stop-opacity:1;"
         id="stop3" />
      <stop
         offset="1"
         style="stop-color:#8b5a2b;stop-opacity:1;"
         id="stop4" />
    </linearGradient>
    <linearGradient
       id="linear-gradient"
       gradientUnits="userSpaceOnUse"
       x1="110.25"
       y1="213.3"
       x2="496.14"
       y2="436.09">
      <stop
         offset="0"
         style="stop-color:#dcb782;stop-opacity:1;"
         id="stop1" />
      <stop
         offset="1"
         style="stop-color:#8b5a2b;stop-opacity:1;"
         id="stop2" />
    </linearGradient>
    <linearGradient
       inkscape:collect="always"
       xlink:href="#linear-gradient"
       id="linearGradient2"
       gradientUnits="userSpaceOnUse"
       x1="110.25"
       y1="213.3"
       x2="496.14"
       y2="436.09" />
    <linearGradient
       inkscape:collect="always"
       xlink:href="#linearGradient4"
       id="linearGradient3"
       gradientUnits="userSpaceOnUse"
       x1="110.25"
       y1="213.3"
       x2="496.14"
       y2="436.09" />
  </defs>
  <title
     id="title2">icon-transparent</title>
  <g
     id="icon-transparent"
     transform="rotate(90,255.97284,255.98144)">
    <path
       id="inner-shape"
       d="m 201.92495,115.74485 c -1.86631,0.55336 -3.94014,0.77393 -5.8177,1.35869 -2.23033,-0.0249 -2.35907,1.40049 -4.16458,2.01236 -0.92492,0.98735 -4.73287,1.0454 -6.98235,1.82747 -2.12608,0.16962 -3.91676,0.9759 -5.72879,1.65762 -2.08456,0.36125 -3.61768,1.37488 -5.37884,2.11407 -1.82717,0.73199 -3.24115,1.72719 -4.99281,2.50987 -1.46009,0.99324 -4.06503,0.91854 -5.90113,1.65492 -1.7822,0.71476 -2.49107,2.3072 -4.14614,3.00501 l 1.03469,6.07212 1.37481,6.25395 1.01366,5.8497 1.05892,6.05604 0.53272,4.78415 0.85961,6.62507 1.77387,6.89585 0.99387,5.98807 1.01801,6.07492 1.06775,6.10791 2.8034,6.09586 0.23973,4.41996 0.79253,7.658 0.50399,6.0978 1.49327,6.50159 c 0.76747,0.80334 1.79028,1.55352 2.97812,2.50517 1.18785,0.95166 2.53731,2.01525 3.86378,2.99843 l 0.96958,-6.57895 0.83929,-6.3118 0.99197,-6.76204 0.89299,-5.68718 1.10034,-6.19076 0.93294,-7.29574 2.21205,-4.89195 1.39257,-6.18291 1.61088,-6.08443 2.18629,-6.46122 0.42792,-6.98475 1.23396,-5.46295 0.51245,-7.99992 0.8663,-4.70342 1.78939,-6.36879 0.34871,-6.64191 1.35615,-5.57319 z m -56.82384,2.07225 c -1.56449,1.1583 -3.26682,2.24904 -4.83118,3.44063 -1.64135,1.10635 -3.6034,1.07891 -5.15451,2.29839 -2.15865,-5e-5 -3.6401,2.12928 -5.26913,3.54217 -1.85261,0.77228 -3.43639,1.64115 -4.91528,3.06526 -1.93419,0.39878 -3.17714,2.26459 -4.62678,3.9044 -1.53148,0.74202 -2.79444,1.67358 -4.10759,3.37803 -1.37603,0.0876 -2.56969,3.0821 -3.83785,5.06122 -1.07924,1.6843 -2.0987,4.02421 -3.24082,5.08409 l 4.8183,5.69879 3.15048,4.52325 2.56123,3.11525 3.70852,6.95409 3.34011,5.8189 2.62485,4.99347 3.82949,5.79004 2.55146,4.94374 3.76239,5.69139 2.41135,4.97404 2.41159,5.07246 3.50248,6.31048 2.5818,5.33586 2.81404,5.68497 2.77063,5.71982 c 1.32688,0.31911 3.9214,1.10394 5.44603,1.54893 1.52464,0.44499 1.60418,-0.48938 3.18692,-0.0192 l -0.96351,-6.11489 -1.40933,-6.87722 0.22571,-5.46714 -0.0538,-6.12917 -1.36497,-7.542 -1.23541,-5.70369 -0.50475,-5.9508 -1.41521,-6.5398 -1.30094,-7.4976 -0.93942,-4.69712 -0.94265,-6.02401 -1.57257,-6.92953 -1.47157,-6.05471 -0.0427,-5.2724 -1.94118,-7.15397 -1.69338,-6.04702 -1.43461,-5.82837 z m 64.4857,15.45019 -0.54262,6.33338 -1.53607,5.09991 -1.23362,6.39812 0.10741,7.0761 -1.1848,4.49468 -1.39646,7.19198 -1.16542,6.26627 0.0953,6.57252 -1.43594,5.60759 -0.40461,6.68722 -1.52969,5.64674 -1.62215,4.41422 -1.99439,6.9621 0.28206,6.78067 -1.52449,6.27246 c 0.46448,1.25496 1.35459,2.74058 2.15024,4.10077 0.79564,1.36019 1.89484,2.7498 2.80504,4.12737 l 3.38817,-5.33613 3.22363,-5.54133 4.2583,-5.28464 3.99386,-5.02306 4.09474,-5.38865 4.36967,-4.97082 3.04739,-4.94763 3.09799,-5.64101 2.69458,-5.90149 2.60787,-6.01172 3.18081,-5.09941 2.91882,-5.77868 2.37227,-6.74125 2.43292,-5.12506 2.77796,-5.65362 2.57436,-6.23156 2.8683,-5.24016 3.19904,-5.48245 c -1.96067,-0.13131 -4.12637,-0.46467 -6.10423,-0.56732 -2.10868,-0.3158 -3.4572,0.0962 -5.37303,0.0306 -1.73189,0.20531 -3.83067,0.17851 -5.94949,0.1299 -1.70653,0.26349 -3.52321,0.34344 -5.64582,0.29896 -1.46647,0.39628 -4.38588,-0.12791 -6.614,-0.20223 -1.94668,-0.0745 -2.30623,0.0657 -4.23006,0.017 -0.59555,0.14014 -4.55204,0.0312 -7.05764,-0.0124 -2.04644,-0.0356 -4.41312,-0.4071 -5.99621,-0.32799 z m -117.875772,5.41455 c -1.073979,1.62353 -1.879199,3.5956 -2.941627,5.25039 -1.107553,1.61326 -2.133395,3.31741 -3.180516,5.0013 -1.056143,1.66547 -1.927735,3.50883 -2.949967,5.20634 -0.861988,1.82085 -2.079606,3.28307 -3.076716,4.9663 -1.068243,1.6203 -2.064669,3.15877 -3.043203,4.86763 -1.052078,1.47869 -2.22527,2.76735 -3.171555,4.53555 -1.212259,1.04235 -1.751307,3.78054 -2.588995,5.72848 -0.767525,1.78478 -1.637928,3.45632 -2.431864,5.00521 l 4.559386,3.53711 4.933081,4.13612 6.067663,4.27262 3.847399,3.10676 5.486622,4.62135 3.683658,2.68453 6.680856,5.13747 3.66162,3.2602 4.56006,4.09551 4.6871,4.15011 4.52802,4.07228 4.80999,4.3322 4.41967,3.98824 4.51466,2.11393 4.64455,6.14939 c 1.66671,-0.0684 2.98797,-0.63834 4.65028,-0.72052 1.66231,-0.0822 3.86161,0.48962 5.50972,0.39014 l -2.56861,-5.19838 -3.65153,-6.17851 -3.23194,-5.74147 -3.13469,-5.83175 -3.18363,-5.31636 -2.30311,-4.97778 -3.43296,-5.88549 -2.97374,-5.28424 -2.14508,-5.4886 -4.1881,-6.66835 -3.15122,-5.06979 -3.03428,-5.29357 -2.99743,-5.40399 -2.18084,-5.63359 -3.26458,-5.59118 -3.97757,-5.56277 -3.319168,-4.96168 z m 165.987412,14.21814 -2.26227,5.38253 -3.74072,4.72044 -3.67339,5.45199 -2.90422,5.56447 -2.08944,5.55633 -3.4679,5.54732 -3.05093,5.52248 -3.53939,3.79158 -3.57354,6.32461 -2.7494,5.62944 -2.78938,5.50925 -3.40679,4.91112 -2.97254,5.64903 -3.13523,5.27638 -2.66385,5.64114 c 0.13242,1.49454 1.16055,3.07062 1.47385,4.65951 0.3133,1.58889 -0.4278,2.46794 -0.0436,4.07374 l 5.03577,-3.96569 5.31952,-3.69017 5.13942,-3.95495 5.55698,-3.47903 4.46756,-4.18794 4.69096,-4.62175 4.57479,-4.826 4.38079,-3.76251 5.35221,-3.8765 4.92366,-3.82038 4.73666,-5.40624 4.61339,-3.31459 4.81198,-3.97904 4.47449,-5.00634 4.79925,-4.26982 5.01009,-3.49788 5.10678,-3.73024 4.99593,-3.88477 c -1.75708,-0.74322 -3.49587,-1.46241 -5.28836,-2.19646 -1.76653,-0.71859 -3.54121,-1.44444 -5.37342,-2.17046 -1.75805,-0.7018 -3.61727,-1.43609 -5.48121,-2.14956 -1.7731,-0.69274 -3.56997,-1.35781 -5.43932,-2.04707 -1.72862,-0.63965 -3.02724,-0.92514 -4.92113,-1.59637 -1.27553,-0.2638 -4.17899,-2.0553 -6.31356,-2.81236 -1.81299,-1.20749 -3.60295,-1.17202 -5.33865,-1.62823 -1.86968,-0.49143 -3.53137,-0.80831 -5.2458,-1.33701 z M 49.29654,176.88194 c -0.453928,1.89295 -1.031661,3.70458 -1.464026,5.62294 -0.746025,1.63889 -0.901145,4.0293 -1.317541,6.07235 -0.408466,1.92514 -0.669273,3.97255 -1.032055,5.92624 -0.253025,2.00885 -0.903592,3.37134 -1.237852,5.29188 -0.559289,1.58582 -0.575928,4.22002 -0.886026,6.31624 -0.168291,1.97689 -0.556121,3.82728 -0.825247,5.7194 -0.267514,1.91751 -0.753084,3.51452 -1.0055,5.37641 -0.256451,1.89165 -0.298487,4.02781 -0.525164,5.83764 l 5.942053,2.2379 5.640014,2.03992 6.16384,2.14737 6.746095,2.10812 5.628528,1.87628 5.745079,2.30024 4.989052,1.88608 5.640177,1.49804 7.273461,2.7325 4.339189,0.44077 6.956093,3.12644 6.35517,2.1719 4.67855,2.19243 5.78004,2.48901 5.25317,2.48323 c 1.5454,-0.63687 3.05955,-2.2412 4.59413,-2.88788 1.53457,-0.64667 5.15457,-0.27889 6.66927,-0.93605 l -5.27937,-4.54647 -3.97599,-3.39838 -5.69179,-4.69932 -4.8913,-3.99387 -4.74483,-3.9166 -5.10057,-4.21577 -3.57613,-4.12728 -6.291386,-5.28695 -4.692915,-3.70592 -5.0835,-4.38044 -5.019703,-4.21112 -4.905359,-3.93067 -4.825466,-3.77646 -5.321652,-4.04653 -4.479869,-3.79186 -4.349485,-3.79682 -6.458014,-4.60102 z m 246.26852,9.9001 -3.1155,4.81711 -4.51269,4.66826 -4.59684,4.56142 -3.59844,4.20594 -5.96078,4.20352 -4.3449,4.13655 -5.07492,3.87756 -3.84402,3.83 -5.50649,4.14481 -3.97099,4.10857 -6.08767,3.307 -5.13508,3.41562 -3.92704,4.03837 -5.53992,3.75754 -5.48494,2.08888 c -0.20373,2.16331 -0.59916,3.63009 -0.80234,5.4092 -0.20318,1.77911 -0.23469,3.34904 -0.42291,4.98938 l 6.0136,-2.13051 6.86762,-1.9306 5.08636,-2.17506 5.71468,-3.51849 5.58286,-3.37342 6.42505,-1.90671 5.60206,-1.9009 6.94862,-1.46868 5.28102,-3.07509 6.19716,-1.57633 6.9513,-1.5802 5.88391,-1.24294 5.24389,-2.08774 7.02796,-1.83944 4.67474,-2.95591 6.37928,-1.99426 5.81848,-2.04698 6.3677,-1.69499 c -1.44349,-1.36641 -2.88375,-2.71816 -4.35277,-4.07236 -1.45601,-1.34846 -3.01763,-2.8319 -4.51117,-4.1728 -1.51827,-1.43269 -2.67603,-2.44358 -4.14566,-3.7263 -1.32159,-1.20702 -2.88991,-2.67491 -4.48352,-4.02201 -1.29469,-1.26243 -2.15821,-2.32686 -3.75363,-3.62028 -0.70443,-1.07058 -3.05517,-2.67468 -4.92075,-4.05544 -1.12941,-1.09513 -3.47055,-2.60021 -5.16165,-3.76684 -1.64003,-1.13138 -3.46998,-2.6093 -4.81167,-3.62545 z M 22.759046,227.67423 c 0.220873,1.93404 -0.104629,3.13787 0.145162,5.08846 -0.01827,1.5583 0.753975,4.3591 1.073171,6.53168 0.464313,1.98095 0.570865,3.84938 0.875955,5.78035 0.302628,1.94774 0.495147,3.38912 0.825861,5.33576 0.221167,1.56981 0.484926,3.81292 0.877297,5.92991 0.127354,1.62427 1.651542,4.46383 2.087687,6.51748 1.241712,2.18104 0.357691,3.15987 0.550342,4.81423 0.219996,1.8892 0.819081,4.08521 1.232211,5.89469 l 5.799809,-0.74629 7.593228,0.33917 4.668828,-1.19194 7.327849,0.49416 5.486613,0.10493 5.726829,-1.25551 6.595638,0.14243 6.204179,-0.32719 6.306474,0.36386 5.891644,0.12652 6.010805,-0.0249 6.824272,0.65556 5.88225,0.46691 6.0492,0.39036 7.10177,0.83188 c 0.77076,-1.32354 1.23955,-3.45575 2.34496,-4.63717 1.10542,-1.18142 3.10238,-1.34097 4.30096,-2.47655 l -6.21439,-3.77174 -5.11995,-1.6721 -5.54233,-2.1013 -6.78851,-2.40308 -6.06436,-2.1945 -6.248723,-3.47062 -5.367379,-1.77265 -5.918564,-1.88492 -6.190927,-2.03461 -5.617683,-1.87998 -6.800298,-2.71193 -5.403633,-1.64832 -4.585593,-2.00189 -7.8295,-2.42663 -6.002424,-1.78791 -6.364727,-2.91008 -5.528729,-1.06616 z m 296.963684,4.29752 -5.49856,2.94569 -5.49954,2.22409 -4.84424,2.51525 -6.55952,2.49418 -5.22107,2.11033 -6.67177,2.01373 -4.49669,2.33022 -6.94569,2.26482 -5.08639,2.41165 -6.72442,1.01332 -5.87718,2.06289 -6.11777,1.42899 -5.61915,2.33553 -4.60743,2.71417 -6.91514,1.83021 c -0.7894,1.47456 -2.07334,2.02138 -2.83729,3.50154 -0.76394,1.48016 -1.14275,3.62442 -1.88066,5.10147 l 6.5261,0.12519 7.42983,0.1657 4.89659,-0.56178 6.81618,0.0734 6.16541,-1.81943 6.499,0.17585 7.23805,0.27098 5.55721,0.17154 6.54215,0.35289 6.60036,0.37191 6.09016,0.253 6.67481,0.43423 5.91131,0.038 7.04943,0.10169 5.45517,-0.68862 6.84809,0.44073 5.81954,-0.51014 8.00838,1.24892 c -1.02879,-1.78872 -2.04746,-3.57286 -3.07164,-5.35623 -1.01756,-1.78166 -2.0485,-3.56625 -3.06977,-5.33931 -1.02002,-1.77089 -2.08352,-3.89056 -3.09978,-5.6422 -1.01106,-2.02103 -0.094,-3.12176 -1.05378,-4.74172 0.6412,-1.82938 -2.18739,-3.72648 -3.59469,-5.69976 -0.84481,-1.39295 -2.38517,-3.32299 -3.67118,-5.00749 -1.0863,-1.49792 -2.71128,-3.6085 -3.85315,-5.12751 -1.17565,-1.56395 -2.36343,-3.5606 -3.31127,-5.02793 z M 14.379147,284.06462 c 0.869033,1.74186 1.848124,3.55613 2.749986,5.30363 0.982872,1.78878 1.768353,3.41135 2.678572,5.12351 0.915665,1.73192 1.816018,3.40557 2.771047,5.14792 0.906338,1.66643 1.867195,3.39856 2.857958,5.1499 0.908768,1.62179 1.982379,3.16757 2.997246,4.90419 1.006393,1.41344 1.684836,2.62043 2.719671,4.38223 0.684015,0.89041 2.222967,3.83336 3.370714,5.7979 1.003106,1.71696 2.344212,3.43269 3.253235,4.83993 l 5.673225,-2.25239 5.487484,-2.67221 6.468401,-2.03158 5.621929,-1.70219 5.475595,-2.20213 5.599714,-2.435 5.678139,-2.69487 7.698232,-1.92628 4.490482,-1.43817 5.861438,-1.80362 6.319635,-1.80484 5.10676,-2.28536 5.7122,-3.54623 6.32684,-1.07753 5.35246,-1.77528 c 0.71772,-1.54124 1.22029,-3.38682 1.96632,-4.88365 0.74603,-1.49683 1.69698,-2.98835 2.43488,-4.46539 l -6.31672,0.062 -6.74908,-0.73478 -6.07515,0.0217 -5.84735,0.28916 -5.81917,0.27765 -5.641823,0.0606 -7.979101,0.18908 -5.895664,0.37313 -7.17435,-0.23194 -5.371461,0.29232 -7.499516,-0.39364 -5.933667,0.14298 -6.526666,-1.86924 -5.943856,0.75497 -5.715881,0.36218 -6.644899,0.76637 -7.317185,-0.24437 z m 220.986073,0.47116 c -1.24226,1.12371 -3.25958,1.74195 -4.48287,2.8739 -1.22329,1.13196 -2.6952,1.9676 -3.89378,3.10319 l 7.15089,2.32012 5.67866,2.29312 5.13965,1.77429 6.1198,2.26388 7.51441,2.44865 5.39159,1.84158 5.05056,1.69783 5.92112,1.97875 6.40651,2.47721 6.39783,2.5055 5.35024,1.62692 7.42183,2.4746 4.88697,1.97015 5.84848,1.9509 6.36615,2.76346 5.22449,1.50137 6.79163,3.2306 5.35674,2.33996 c -0.2148,-1.92001 0.20007,-3.58559 -0.0451,-5.52544 0.38605,-1.78429 -1.03816,-4.99405 -1.35437,-7.06624 -0.74049,-2.52856 -0.53269,-3.53916 -0.7978,-5.16461 -0.32965,-2.13522 -0.75657,-4.28479 -1.08047,-6.12351 -0.44867,-2.32884 -0.0705,-3.43472 -0.3908,-5.14479 0.18795,-1.89462 -1.15513,-5.61868 -1.63399,-7.56885 -0.70594,-3.17724 -0.63772,-2.70922 -0.95966,-3.87968 -0.45805,-1.66537 -0.57015,-3.23049 -1.06897,-5.41527 l -6.34469,-0.27487 -5.50778,0.39035 -5.62649,0.24622 -7.58417,-0.45066 -4.78066,0.14082 -6.3755,0.11569 -7.19917,-0.009 -6.17292,0.0284 -6.30001,-0.0787 -6.1101,0.006 -6.53834,-0.3587 -5.57125,0.28423 -6.53906,-0.004 -6.1808,-0.003 z m -101.47288,16.20608 -6.32877,1.51829 -5.78969,2.28814 -4.78438,2.30293 -6.48298,2.68564 -6.70394,1.79324 -6.150583,1.73257 -5.963704,2.21835 -5.990029,2.14999 -6.080433,2.13039 -4.918736,2.5364 -6.739449,2.47674 -5.883317,2.2888 -6.308146,1.15619 -6.04069,2.43678 -5.995997,2.27806 -5.013924,2.60881 -6.840568,2.20155 -6.031188,1.75381 c 1.442879,1.42361 2.971187,2.86276 4.439691,4.26075 1.523323,1.40998 2.93019,2.76489 4.398965,4.11781 1.49869,1.37948 3.432645,3.06752 4.925922,4.39903 1.82811,1.57166 2.724557,2.41337 4.071629,3.58223 1.513678,1.31352 3.004939,0.59742 4.50075,1.8539 1.745251,-0.52351 3.720267,3.28539 5.46857,5.06756 1.527314,1.40184 2.477571,2.01645 3.736819,3.27879 1.358634,1.36198 3.060059,3.47982 4.48801,4.5613 l 5.167006,-3.67903 4.563245,-3.94092 4.909023,-3.85974 4.576141,-4.04723 4.537377,-4.37645 5.404314,-3.9099 4.050844,-4.13066 4.687818,-3.78286 5.03849,-3.77288 4.58115,-3.9565 6.2342,-3.96387 5.45378,-3.28441 3.55616,-3.82712 3.97602,-4.66325 4.82184,-4.25866 c -0.17204,-1.81831 -0.14665,-3.5507 -0.0374,-5.24356 0.10924,-1.69286 0.30794,-3.34067 0.49617,-4.98101 z m 95.45401,1.49784 c -1.55168,0.63106 -2.91951,1.94763 -4.45615,2.59285 -1.53663,0.64523 -1.71688,1.63273 -3.23157,2.2899 l 6.35701,4.4677 3.65151,3.09248 4.67814,3.33782 5.21751,4.19845 5.03447,4.39509 4.81911,4.2047 4.26166,3.51979 4.9324,3.13253 5.69285,5.14786 5.02145,4.40687 4.19666,3.81574 4.53873,4.09026 5.41022,4.75359 4.39046,3.92049 4.27855,2.41502 5.17614,5.32413 4.32849,4.25352 4.02279,4.15157 c 0.50681,-1.80628 0.64309,-4.3004 1.116,-6.15246 0.0758,-2.34371 1.10981,-3.14625 1.52147,-4.83684 0.72972,-1.71051 0.84416,-4.25892 1.27459,-6.20954 0.3199,-2.18057 1.36816,-3.23504 1.73556,-5.01901 0.99781,-1.63262 0.60309,-4.15999 0.91416,-6.16818 0.13428,-2.04778 0.52004,-3.87234 0.78084,-5.72628 0.21985,-2.00827 0.8038,-3.47946 1.05794,-5.30795 0.25671,-1.84702 0.65936,-3.57986 0.89352,-5.44949 l -5.41304,-1.81432 -5.87221,-2.04792 -6.49549,-2.6361 -5.86014,-2.49258 -5.53717,-3.319 -5.08676,-1.74436 -5.21821,-1.71819 -6.38884,-2.01754 -6.49057,-2.29498 -5.90663,-2.27858 -4.98414,-1.45359 -6.69086,-2.35458 -4.50306,-1.58236 -7.14674,-2.31928 z m -85.41119,12.34622 -3.7462,4.76509 -5.1929,4.39523 -4.33044,4.45034 -4.94503,4.31319 -4.02906,4.45102 -3.97352,4.37184 -5.71359,4.69314 -5.527,2.63519 -5.40618,4.11509 -5.005013,3.93002 -5.435422,3.18482 -4.672047,4.3027 -5.259482,3.56265 -5.080517,4.15921 -5.32393,2.8426 -5.219466,4.52937 -3.670922,5.04676 -5.068393,4.26933 c 1.770702,0.76305 3.489239,1.44618 5.292161,2.19541 1.759111,0.68641 3.57447,1.35324 5.430133,2.09801 1.766808,0.58857 4.180831,1.79968 6.068501,2.53614 2.121072,0.96389 3.290846,0.003 4.961806,0.62811 1.923235,-0.549 3.574604,0.83436 5.560301,1.67548 1.523301,0.0893 3.84603,1.21543 5.841764,2.15578 1.692705,0.29125 5.152251,2.03053 6.933498,2.92615 1.740433,0.8751 2.306741,1.7465 3.950988,2.25356 l 3.25997,-5.22008 2.94603,-5.94774 3.61549,-4.57343 3.57689,-5.32706 2.87036,-6.02905 2.53157,-6.52442 2.22584,-4.35975 3.55334,-4.87038 3.81724,-5.02676 2.52946,-5.98471 3.1225,-4.99547 2.96787,-7.54891 2.121,-5.18178 2.79422,-4.48371 3.8961,-4.6693 c -0.30123,-1.5476 -0.4587,-3.06772 -0.81419,-4.67037 -0.3555,-1.60264 -1.06958,-3.46751 -1.45373,-5.07331 z m 75.48733,4.33728 c -1.67393,0.0623 -4.52163,-1.3e-4 -6.18575,0.0805 -1.66412,0.0806 -2.90396,0.17142 -4.55207,0.27089 l 2.80904,4.05997 3.85386,6.78452 2.89748,4.44882 3.57391,6.38324 2.78109,5.09555 3.37739,5.9884 2.94384,5.3612 3.75815,5.87271 2.59747,4.06643 3.70963,6.70999 4.61454,5.72244 2.25053,4.42025 4.06241,6.41552 3.14574,5.40809 2.40726,5.20582 3.62498,6.22195 2.87704,5.38673 1.53875,5.62832 c 1.07642,-1.61273 3.34193,-3.18355 4.40623,-4.83006 2.16119,-1.43546 2.11551,-2.86216 3.03387,-4.38149 1.24004,-1.56502 1.98341,-3.48548 2.95385,-5.22071 0.91706,-1.77667 1.70668,-4.15513 2.62621,-5.8907 0.65234,-2.30069 1.20638,-4.5029 2.04342,-6.04929 0.33918,-2.85659 1.56263,-3.08866 2.43648,-4.41853 0.92867,-1.78155 1.74358,-3.67602 2.81704,-5.21717 1.02274,-1.46836 1.91931,-3.28309 2.81729,-5.03495 l -4.85009,-4.80775 -4.29589,-3.54906 -3.60307,-3.49048 -5.58551,-4.62185 -4.79015,-4.00688 -4.54045,-5.2094 -2.44501,-3.10852 -5.96505,-4.43567 -5.0681,-3.78037 -5.33497,-4.51513 -4.11402,-2.93118 -5.21148,-4.4129 -4.69062,-3.20641 -4.80038,-3.18287 z m -61.30473,3.95846 -2.167,7.5036 -3.55629,4.86726 -3.52818,4.3485 -4.03594,5.39723 -3.50744,6.37414 -2.50549,5.8977 -3.02711,5.61572 -2.21672,5.99847 -3.31826,5.48881 -3.22969,5.51319 -2.97657,5.64364 -2.62203,5.76019 -3.5879,5.32471 -3.26311,5.51529 -3.02322,5.62559 -3.88707,4.82487 -3.29417,5.73979 -3.60455,4.94066 c 1.9885,0.18604 4.38571,0.53635 6.38482,0.68091 2.27072,0.32067 3.31297,-1.10295 5.17225,-1.00816 1.73962,-1.2421 5.11157,0.6759 7.277,0.80768 2.52149,0.54402 4.84131,0.67634 6.53395,0.75879 2.95205,0.55155 2.76042,-0.55931 4.20525,-0.53569 1.79836,-0.64822 4.55867,0.38074 6.57805,0.44374 2.26693,0.33359 4.42807,0.26062 6.16721,0.20622 1.78837,-0.0559 2.99603,-0.23219 4.99351,-0.33201 l 1.31785,-5.96152 2.20762,-5.84365 0.78962,-6.54478 1.04842,-5.75797 0.85076,-7.61348 0.47368,-5.08905 0.95165,-5.99902 0.98861,-6.07246 0.52744,-6.6965 0.94409,-5.51176 1.31516,-5.98114 0.80188,-6.55269 1.63021,-5.59732 0.93794,-7.45556 0.86218,-5.06554 c -0.80576,-1.25984 -1.53568,-2.59181 -2.41616,-3.95322 -0.88048,-1.3614 -2.28205,-4.32761 -3.19225,-5.70518 z m 34.65909,4.03462 0.72292,5.92791 0.91304,5.63969 1.4924,7.3043 1.00871,5.33505 0.88076,6.58362 0.9882,6.33966 1.50848,6.99014 1.37699,6.01002 1.53082,6.53965 2.65809,6.06432 1.13872,6.14444 0.79616,6.12477 0.34257,4.95926 1.41413,7.76635 0.82734,6.24724 1.36821,6.57227 1.10716,6.17218 0.81554,6.59777 c 1.41861,-1.21452 3.79053,-2.08435 5.24319,-3.31898 2.27411,-0.78378 2.19345,-3.60974 3.52523,-4.7737 0.86046,-2.49169 2.6446,-2.43569 3.99808,-3.5763 1.44274,-1.36453 3.0333,-2.46142 4.5309,-3.68696 1.55215,-1.20215 2.48491,-3.46058 3.98357,-4.68683 0.94497,-2.20687 3.72775,-2.02531 5.26308,-3.09539 2.21878,-0.76093 3.60365,-1.78696 4.89867,-2.92087 1.37241,-1.20167 1.93232,-2.79783 3.36377,-4.1262 l -3.22175,-6.18854 -2.71173,-4.70395 -3.3707,-5.8578 -2.92926,-5.14849 -3.00165,-5.1 -3.11277,-5.31456 -3.04557,-5.24994 -2.88652,-5.17754 -3.15516,-5.56105 -3.24814,-5.45043 -2.93156,-5.21098 -1.97744,-4.9092 -3.50109,-6.00244 -2.82165,-4.84377 -4.5259,-5.66846 c -1.54814,-0.4595 -3.21865,-1.07713 -4.79909,-1.55672 -1.58043,-0.4796 -2.87402,-0.71933 -4.45675,-1.18954 z m -17.43011,1.73726 -1.33728,5.23883 -1.00973,7.3665 -1.61595,5.23895 0.0577,7.33326 -1.37778,5.7679 -1.55605,5.97981 -0.94054,7.08439 0.34813,6.37981 -1.42823,5.38518 -1.80709,6.032 -1.55255,6.97008 -0.94092,6.68139 -0.5071,6.30491 -0.54764,6.52726 -1.64186,5.11594 -1.46301,7.08408 -1.18662,6.35121 -1.48513,6.03775 c 1.8727,-0.5433 5.07299,-0.9673 6.95546,-1.5443 2.83253,-0.32645 3.00962,-0.93815 4.49199,-1.42455 1.90013,-0.62219 3.71554,-1.32537 5.57197,-1.98128 1.82755,-0.72807 4.20302,-1.12095 6.05721,-1.81178 2.20882,-0.43104 3.81596,-1.06302 5.51364,-1.75786 2.10271,-0.45181 3.40281,-1.62146 5.08821,-2.41055 1.65592,-0.93602 4.28129,-1.3363 6.02969,-2.12128 1.686,-0.75697 3.99788,-1.54253 5.7443,-2.27885 l -0.99958,-6.02361 -0.70565,-5.8395 -1.47003,-6.84499 -1.13593,-5.76697 -0.77147,-6.01427 -1.38024,-6.38932 -1.59451,-7.03856 0.0416,-4.83742 -1.23371,-6.23441 -1.75786,-7.09182 -1.20663,-5.42003 -1.19171,-5.81062 -1.2401,-5.98297 -1.78677,-7.86059 -0.95043,-4.29811 c -1.39299,-1.06006 -2.92344,-2.39875 -4.26816,-3.41507 -1.34471,-1.01633 -2.48311,-1.69736 -3.80958,-2.68054 z"
       fill="url(#linear-gradient)"
       style="fill:url(#linearGradient2)"
       inkscape:path-effect="#path-effect25;#path-effect27"
       inkscape:original-d="m 256,201.6 c -20.4,0 -86.2,119.3 -76.2,139.4 10,20.1 142.5,19.9 152.4,0 9.9,-19.9 -55.7,-139.4 -76.2,-139.4 z"
       transform="matrix(0.4867845,0,0,0.4867845,168.94917,142.72278)" />
    <path
       id="outer-shape"
       d="m 257.00587,23.530258 c -1.14074,0 -3.91922,-0.951254 -5.15133,-0.708931 -1.73734,-0.617616 -0.5457,0.905616 -1.77367,1.337644 0.0416,0.965798 -4.01969,0.779272 -5.92346,1.799733 -1.81048,0.07679 -3.18508,1.125504 -4.63693,2.067901 -1.85083,0.492239 -2.99162,1.962987 -4.52248,3.110483 -1.58251,1.125993 -2.65356,2.694263 -4.27025,4.052197 -1.17537,1.661781 -3.91858,1.964765 -5.64095,3.553532 -2.29915,0.674957 -2.57441,3.650377 -4.36357,5.435567 -0.90215,2.176267 -3.65823,3.726979 -5.53325,5.726815 -1.77644,1.906493 -3.10157,4.155973 -4.93217,6.218122 -1.36699,2.361491 -3.66943,4.286636 -5.57059,6.534187 -1.81473,2.24843 -3.69862,4.532608 -5.61957,6.901992 -1.84232,2.386956 -4.52787,3.005084 -6.49068,5.520512 -2.81875,0.953287 -4.89101,4.547119 -7.09188,7.481199 -2.63744,1.709567 -3.37502,5.700529 -5.49714,8.630655 -1.26647,2.938188 -4.15563,5.903564 -6.27475,8.922964 -1.97815,2.93915 -3.99514,5.88689 -6.03978,8.88288 -1.97588,3.05082 -3.94867,6.15246 -6.00757,9.24983 -1.90693,3.20059 -1.47897,6.38618 -3.54617,9.57423 0.34766,3.68573 -4.92338,5.0376 -7.22962,8.68082 -2.67163,1.60956 -4.49118,7.58293 -6.84225,11.39115 -1.8571,3.45724 -4.04709,6.82063 -6.11161,10.23598 -1.96741,3.48721 -2.53915,7.47692 -4.58721,10.93493 -0.52147,4.1754 -4.21626,6.8678 -6.29804,10.44882 -2.10521,3.33609 -4.13722,7.01366 -6.19117,10.61332 -2.04759,3.4521 -4.27089,6.7382 -6.29332,10.3496 -2.24606,3.22412 -4.41648,6.88922 -6.44163,10.5777 -2.34254,3.22177 -4.15469,6.27113 -6.13984,9.9628 -2.223015,2.795 -4.334793,7.57226 -6.381259,11.46849 -2.09973,3.4557 -3.880209,7.26041 -5.759976,10.92296 -1.923933,3.57731 -4.03282,5.75048 -5.854226,9.38498 -2.318948,2.46252 -2.269071,8.51732 -4.205661,12.49803 -0.09104,4.22073 -3.163827,7.69809 -4.903804,11.36125 -1.283502,3.87385 -2.594449,7.60436 -4.22216,11.11141 -0.876379,4.02757 -1.586569,7.12725 -3.150628,10.57177 -0.03344,3.82357 -3.881972,6.28664 -5.481649,9.87943 -2.21415,2.65117 -2.633535,7.53154 -4.182625,11.10768 -0.88345,3.64507 -3.390748,4.49002 -4.781654,7.78554 -2.143131,1.66847 -3.041185,7.86756 -4.570017,11.65619 -1.114482,3.36121 -1.352689,6.39729 -2.563353,9.52352 -0.07428,3.29895 -2.917854,5.9658 -4.100342,9.13965 -1.601945,2.62982 -1.492449,6.81324 -2.571746,9.86822 -0.200599,3.41668 -2.282261,5.317 -3.21256,8.07392 -1.280605,2.55349 -2.021208,5.62518 -2.8991,8.41154 -0.973608,2.61278 -2.354858,3.52583 -3.109109,6.14083 -1.582771,1.23103 -2.150369,5.36909 -2.864959,8.35698 -1.087192,1.88289 -1.757074,3.77809 -2.232118,6.36145 -1.071906,1.25427 -1.13158,4.41727 -1.422679,7.13595 -0.488669,1.3852 -0.563099,2.83102 -0.634789,5.31614 -0.198543,0.41929 -0.07473,4.41529 0.07654,7.13512 0.07653,1.07111 0.366297,4.34652 0.612159,6.44725 0.254412,1.69981 2.866125,3.74162 3.11917,5.23829 2.717958,2.0815 1.029069,3.12768 0.790925,4.30571 -0.27026,1.3369 -1.810517,-0.47712 -1.349201,0.4501 0.580769,1.1673 1.231601,2.21445 2.080172,3.33834 0.803327,1.05353 2.429036,2.71436 3.569067,3.82077 1.507282,1.36074 1.918884,1.74424 3.056977,2.6395 1.282266,0.98114 4.129487,2.50468 5.750058,3.53395 2.511273,1.16791 2.587251,1.58024 3.976718,2.34416 1.802954,0.99019 5.02378,2.24447 7.030477,3.17821 2.973182,1.06581 3.273064,1.43148 5.041744,2.15866 2.17416,0.84799 4.116704,1.07022 6.55855,1.93847 2.148679,0.18569 6.052564,2.16618 8.879824,3.0367 3.091213,1.0696 5.004287,1.62497 7.507382,2.31237 2.910738,0.93305 5.929596,1.82741 8.783226,2.52296 3.235705,1.04674 6.377278,1.88805 9.293396,2.52234 3.584463,1.17196 7.324363,1.7498 10.276753,2.32504 4.3142,1.06756 4.9378,-0.4468 7.74408,0.0471 3.07761,-0.85045 7.46832,1.39151 11.22584,1.97292 3.59807,0.67802 6.48941,0.268 10.02685,0.75305 3.34205,-0.2537 9.29037,1.2636 13.1675,1.72985 4.84607,0.63436 7.97498,1.40451 11.18092,1.74923 4.89059,1.01307 6.4899,-0.27715 9.77802,0.0359 3.89368,-0.58383 7.65008,0.49678 11.61592,0.82131 3.81993,0.10541 9.0054,0.72156 13.06386,1.00199 4.6488,0.34435 7.24811,0.27456 10.9582,0.48977 3.96733,0.0233 8.11441,-1.66657 12.2339,-1.47589 4.05609,-1.92608 8.36924,0.43863 12.52248,0.58825 4.16481,0.22364 8.69204,0.5768 12.77085,0.68293 4.4841,0.40631 7.6639,-0.49367 11.59608,-0.42993 3.9915,-0.61105 8.06946,-0.4296 12.25201,-0.40378 3.90953,-0.51846 10.1309,0.71343 14.33099,0.69788 5.23668,0.66888 6.84181,-0.44786 10.35112,-0.49255 3.93151,-0.45875 7.9743,-0.49803 12.07761,-0.59387 3.83757,-0.46766 8.22602,-0.23472 12.30848,-0.37412 3.97827,-0.15689 8.04412,-0.28978 11.98106,-0.46801 3.98612,-0.17306 8.30958,-0.29182 12.14781,-0.51063 4.21886,-0.12775 6.73091,-1.85603 10.34686,-2.10633 3.3438,-1.68951 7.83638,-1.39193 11.69885,-1.70573 3.64758,-1.12374 9.08685,-0.001 12.67275,-0.33331 4.78936,0.33302 5.92185,-2.55233 8.86029,-2.86017 3.36474,-2.34022 6.81086,-1.02881 10.1353,-1.41469 3.34094,-0.68577 6.66471,-0.80194 9.89664,-1.21944 3.2359,-0.42666 8.14118,-0.14951 11.2373,-0.59952 4.28691,0.3306 4.81182,-1.07443 7.25165,-1.47681 2.77913,-0.81494 7.23913,-0.34194 10.08049,-0.88624 3.70226,0.2132 4.60705,-1.14513 6.87795,-1.65509 2.51734,-0.79641 5.01945,-3.63744 7.4896,-4.30133 2.07256,-3.0246 3.96412,-2.14483 6.09773,-2.76667 1.78483,-1.5934 6.58805,-1.15158 8.74398,-1.82971 3.43005,-0.25042 4.09803,-0.47134 5.42619,-0.95179 2.82313,-0.11711 3.37712,-0.97221 4.71961,-1.61404 2.00859,-0.5979 3.77098,-1.48576 5.08393,-2.44036 1.94946,-0.78649 2.8196,-1.84593 3.77583,-3.04651 1.25829,-0.9081 1.69902,-2.46894 2.34757,-3.88121 0.5418,-1.17981 2.55106,-2.08463 3.15263,-3.29179 0.5537,-1.11111 2.52273,-1.91067 2.92145,-3.22368 1.90779,-0.94809 2.4268,-2.80544 2.67768,-4.37668 1.92725,-1.50968 2.76512,-2.84655 2.85836,-4.57329 2.45449,-1.57807 0.73122,-3.44666 0.65365,-5.56822 0.5391,-1.67983 0.12427,-4.12329 -0.13294,-6.48655 0.12901,-1.95239 -0.6906,-4.70106 -1.08844,-7.12003 -0.49025,-2.35423 -0.97241,-4.9979 -1.46294,-7.36383 -0.64339,-2.72566 -0.26429,-4.01863 -0.83819,-6.38608 0.0538,-2.22157 -1.203,-5.432 -2.01295,-8.34425 -0.55347,-2.5688 -2.04245,-6.8632 -2.92093,-9.7206 -1.1838,-3.68187 -1.53929,-4.86987 -2.33642,-7.29266 -0.99632,-2.99006 -1.94842,-5.78568 -2.98695,-8.73566 -1.07361,-3.02266 -2.51116,-6.81463 -3.66126,-9.89626 -1.41459,-3.62364 -2.15186,-5.69556 -3.28706,-8.5985 -1.24472,-3.18301 -2.33624,-6.26057 -3.67209,-9.52534 -1.16174,-3.17954 -3.04443,-7.00563 -4.49603,-10.41003 -1.64652,-3.52636 -2.25285,-6.06964 -3.70006,-9.34692 -1.04868,-3.17722 -2.64575,-6.73585 -4.30907,-10.37255 -1.11346,-3.2013 -2.39655,-6.69198 -4.14543,-10.3931 -0.81437,-3.16881 -3.64718,-7.64062 -5.52379,-11.48861 -1.73906,-3.55143 -1.25352,-6.81386 -3.04194,-10.38313 0.25053,-3.67086 -3.65774,-7.66001 -5.71283,-11.63874 -1.57768,-3.45621 -4.09001,-7.70707 -6.06878,-11.43625 -2.08536,-3.78155 -3.81083,-7.0914 -5.72231,-10.608 -2.01197,-3.65692 -3.94365,-7.20595 -5.9415,-10.79557 -2.02201,-3.62761 -3.81941,-7.01315 -5.86712,-10.60868 -1.88132,-3.48731 -4.29552,-7.48079 -6.43076,-11.14434 -2.14372,-3.66279 -4.2232,-7.43681 -6.31634,-10.95025 -2.13762,-3.82099 -4.49535,-7.93954 -6.57608,-11.3578 -2.32227,-4.25942 -3.83496,-6.36736 -5.80448,-9.53727 -2.09388,-3.46749 -4.44523,-7.06423 -6.63489,-10.50898 -2.24348,-3.4821 -4.57012,-7.38164 -6.73548,-10.71194 -2.31955,-3.80642 -4.29998,-6.5024 -6.37039,-9.61656 -2.31277,-3.40837 -2.58249,-6.17848 -4.73034,-9.33385 -0.70587,-3.30845 -4.93364,-7.42592 -7.35776,-10.87782 -2.22154,-3.40024 -3.35812,-5.40604 -5.48873,-8.3545 -1.49581,-2.70045 -5.389,-7.82759 -7.78951,-11.03624 -2.49876,-3.79408 -1.89595,-4.40904 -3.80666,-6.888161 -0.60179,-2.617037 -5.01722,-6.500547 -7.55325,-9.639923 -2.11649,-2.682959 -4.37429,-5.361644 -6.54847,-7.941626 -2.15373,-2.558677 -4.17289,-5.020439 -6.30292,-7.439573 -2.02412,-2.41586 -4.29475,-4.832065 -6.41263,-7.125823 -2.09505,-2.28021 -3.85789,-4.182495 -5.90404,-6.289917 -1.84676,-1.945339 -4.21079,-4.281463 -6.30525,-6.317678 -1.96316,-1.911067 -4.05756,-6.684728 -6.01914,-8.478059 -1.51866,-4.188652 -2.88635,-2.587532 -4.31472,-3.791726 -1.91812,-1.616906 -4.33491,-3.857479 -6.2058,-5.257248 -2.14145,-1.944303 -2.99089,-2.133468 -4.56967,-3.172859 -1.6464,-1.028972 -2.91083,-1.926979 -4.73606,-2.932705 -1.11963,-0.635625 -4.19304,-2.289808 -6.14635,-3.141424 -1.7147,-0.868176 -3.1779,-1.793003 -4.6213,-2.282292 -1.59141,-1.03684 -2.9591,-1.763196 -4.26736,-2.007436 -1.56341,-1.195611 -3.07268,-0.662649 -4.29891,-0.508693 -1.21041,0.151971 -0.97613,1.086701 -2.09219,1.086701 z M 407.24853,391.33602 c -0.57647,1.15588 -1.97751,1.79189 -2.96019,2.8806 -0.86424,1.15479 -1.71669,2.55658 -3.10735,3.59228 -0.94487,1.44321 -1.14176,2.5651 -2.95496,3.5534 -0.24146,1.65097 -4.96002,1.73411 -7.62091,2.80181 -2.44888,0.26693 -4.30693,1.53957 -6.64553,2.30399 -2.43255,0.69884 -4.48643,1.62951 -7.14458,2.34603 -2.35453,0.85094 -4.96697,1.73507 -8.02488,2.41511 -2.38367,0.96479 -4.23964,1.51214 -7.63119,2.13324 -1.64614,0.85396 -6.3209,1.95657 -10.42641,2.55801 -2.34437,1.16615 -7.06231,1.491 -11.08906,1.96313 -3.0918,0.85968 -6.30798,1.47994 -10.23259,1.84508 -2.82125,1.01987 -8.75611,0.1849 -13.0326,0.48273 -4.15485,-0.27928 -6.16486,0.65071 -9.98167,0.8478 -3.05559,0.38999 -9.40441,-0.91254 -13.89346,-0.76845 -4.43085,-1.20034 -8.15506,-0.3696 -12.06411,-0.30055 -4.36579,-0.52003 -7.56873,0.12143 -11.55511,0.1378 -3.87822,0.0257 -7.02075,0.13233 -11.275,0.0884 -3.14393,0.0802 -9.3658,-0.35528 -13.98055,-0.47744 -4.19105,-0.33062 -7.94985,-0.069 -11.99332,-0.23396 -3.9537,0.006 -8.83225,-2.4974 -12.92013,-2.72877 -4.34476,-2.34229 -7.55194,-0.46236 -11.25884,-0.71244 -3.93882,-0.28138 -7.40129,-0.21045 -11.2131,-0.51851 -3.56584,0.0196 -7.48382,-0.35512 -11.30344,-0.73054 -3.44548,-0.0635 -7.94927,-1.28602 -11.60554,-1.72481 -3.75769,-0.90883 -6.44894,-0.65325 -9.65256,-1.10536 -3.20758,-0.30422 -6.78217,-1.03273 -9.99314,-1.57813 -3.15548,-0.56622 -5.51309,-0.68074 -8.40679,-1.27167 -2.51511,-0.23142 -5.0462,-1.30583 -7.90965,-2.03781 -1.88136,-0.74088 -6.32429,-2.60724 -9.02778,-3.46799 -2.57798,-1.70053 -3.89347,-1.20232 -5.75802,-1.87385 -1.95699,-0.64405 -3.49456,-1.0737 -5.31726,-1.89636 -1.31647,-0.39639 -3.29664,-1.80238 -4.9345,-2.8607 -0.96373,-0.88453 -1.6775,-1.32546 -2.87969,-2.39542 -1.15175,-1.02505 -3.44441,-3.12959 -3.96823,-4.18254 -0.56572,-1.13714 -1.07958,-3.23206 -1.40628,-4.67805 -0.34641,-2.01974 -0.50768,-3.87681 -0.62038,-5.30441 -0.14514,-2.67162 -0.24143,-2.87937 -0.20862,-4.39395 -0.0573,-2.07955 0.82635,-3.83387 1.09466,-6.08033 0.89958,-2.0418 0.97473,-4.55851 1.47119,-7.11965 0.79747,-2.33089 1.00058,-7.0687 1.68641,-9.80607 0.46066,-4.0688 1.5508,-4.10796 2.20146,-6.37011 1.25845,-2.68061 1.75714,-5.96853 2.77346,-9.06847 0.9855,-3.0828 1.45301,-7.57439 2.60913,-10.77211 0.41675,-4.28618 2.00822,-6.65902 3.16922,-9.64269 1.0796,-3.96878 2.53091,-6.25246 3.86761,-9.46997 1.47396,-3.41361 2.8605,-7.03609 4.42441,-10.58177 1.47603,-3.59806 2.84444,-7.44924 4.51216,-11.03862 1.32362,-3.90983 3.39617,-7.07538 5.14217,-10.66101 1.82776,-3.61233 3.71651,-7.26226 5.58276,-10.93279 1.98033,-3.61745 3.87943,-7.30072 5.819,-10.96731 2.05133,-3.63237 4.12037,-7.2372 6.12162,-10.88275 2.21277,-3.563 5.08224,-6.6215 7.13351,-10.22966 3.11559,-2.97455 4.08964,-8.04882 6.18346,-11.62263 1.92235,-4.18796 3.89092,-6.76673 5.8835,-10.06465 2.04225,-3.55363 4.38144,-6.8105 6.50189,-10.20281 2.28707,-3.28466 3.84505,-7.28927 5.97474,-10.58032 1.67453,-3.76033 4.15928,-6.41257 6.24393,-9.50674 2.10665,-3.17418 4.39394,-6.11502 6.50402,-9.11175 2.26185,-2.88208 3.93331,-6.60561 6.01805,-9.43195 1.72647,-3.40817 4.16796,-5.26554 6.14474,-7.79679 2.21072,-2.5323 4.08057,-5.13346 6.07798,-7.53433 2.01349,-2.40679 3.67889,-5.12805 5.62269,-7.29894 1.6226,-2.57398 3.80944,-4.19877 5.67546,-6.08343 1.87326,-1.9348 3.9418,-3.50648 5.75647,-5.12776 1.99324,-1.43489 3.53979,-3.10035 5.23713,-4.42289 1.68629,-1.34442 3.83204,-2.45678 5.42,-3.47313 1.95925,-0.90023 4.62456,-1.60902 5.92876,-2.27813 2.84808,-0.4047 3.21833,-0.81653 3.89425,-1.19536 1.10291,-0.61815 1.78516,-0.51636 3.27736,-0.51636 1.15143,0 2.5117,0.29427 3.80177,0.66826 1.38142,0.46308 2.48346,0.0232 3.84687,0.71363 1.4917,-0.0781 4.97345,2.3883 6.67446,3.58565 2.8929,1.38165 1.9833,-0.22215 3.14964,0.7254 1.75042,-0.2313 5.00865,4.1137 7.17405,6.22284 2.41596,2.07334 5.00568,3.16729 6.59318,4.86805 3.48155,1.75568 3.42146,3.65668 5.03099,5.52216 2.12715,2.36043 4.27365,4.50204 6.1812,6.88687 2.43154,2.45063 3.82826,4.86271 5.76418,7.44385 2.02355,2.69089 3.99198,4.08238 6.03254,6.965 2.21153,1.80445 7.44319,6.56472 9.72281,9.97598 4.6756,2.70421 3.10814,4.67122 4.86265,7.41502 1.79832,2.79924 5.30031,7.50399 7.49189,11.11023 2.79657,3.65162 3.61358,6.07166 5.48942,9.29094 1.91162,3.35044 4.10548,7.15024 6.15256,10.82192 1.9703,3.56067 4.3303,7.44928 6.29812,11.12882 2.23869,3.76682 3.96185,7.20928 5.81913,10.8242 2.06334,3.7319 5.91723,7.4134 7.74705,11.12425 3.87581,3.50404 3.00327,6.20152 4.64049,9.67885 1.51875,3.29326 3.71145,8.01458 5.50848,12.04486 1.6545,3.73829 3.28379,6.98422 4.87715,10.75255 1.60758,3.32913 3.07264,7.22957 4.61718,11.10763 1.36111,3.29406 2.95558,7.45512 4.38439,11.28447 1.30256,3.41812 2.96596,7.45967 4.23247,11.10152 1.46044,3.53778 2.30234,6.87045 3.3915,10.26185 1.04069,3.3759 3.01922,6.92883 3.98989,10.24681 1.80356,3.27936 3.62751,6.7878 4.40805,9.82943 2.5766,3.35804 1.28502,5.30394 1.84185,8.01855 0.54816,2.77756 0.94876,5.78391 1.36944,8.70817 0.19674,2.53254 2.52608,6.12078 2.74809,8.8246 1.98785,2.83459 1.51971,5.15495 1.45063,7.3823 1.19244,2.70529 0.55258,5.05802 0.11542,7.10178 0.48855,2.51525 0.9968,4.10143 0.21764,5.73728 1.28263,2.017 -2.75085,2.90539 -4.19942,4.24003 -1.027,0.94624 -0.94724,2.67683 -1.38154,3.54986 z"
       fill="url(#linear-gradient)"
       style="fill:url(#linearGradient3)"
       inkscape:path-effect="#path-effect26"
       inkscape:original-d="m 256,23.3 c -61.6,0 -259.8,359.4 -229.6,420.1 30.2,60.7 429.3,60 459.2,0 C 515.5,383.4 317.6,23.3 256,23.3 Z m 150.5,367.5 c -19.6,39.3 -281.1,39.8 -300.9,0 C 85.8,351 215.7,115.5 256,115.5 c 40.3,0 170.1,235.9 150.5,275.3 z"
       transform="translate(-3.8645705,2.387311)" />
  </g>
  <metadata
     id="metadata25">
    <rdf:RDF>
      <cc:Work
         rdf:about="">
        <dc:title>icon-transparent</dc:title>
      </cc:Work>
    </rdf:RDF>
  </metadata>
</svg>
